# xmcd CD database file
# Copyright (C) 1993-1998 Ti Kan
# 
# Track frame offsets:
#     150
#     17995
#     32720
#     48601
#     65389
#     85725
#     106414
#     122284
#     143689
#     155232
#     172477
#     183912
#     197504
#     208435
# 
# Disc length: 2961 seconds
# 
# Revision: 1
# Processed by: cddbd v1.4b41PL1 Copyright (c) Steve Scherf et al.
# Submitted via: DiscPlay 4.0.4
# 
DISCID=cb0b8f0e
DTITLE=Waco Brothers - Cowboy in Flames
DYEAR=1900
DGENRE=
TTITLE0=See Willy Fly By
TTITLE1=Waco Express
TTITLE2=Take Me To The Fires
TTITLE3=Out There A Ways
TTITLE4=Dollar Dress
TTITLE5=Out In The Light
TTITLE6=Cowboy in Flames
TTITLE7=Fast Train Down
TTITLE8=Wreck on the Highway
TTITLE9=Dry Land
TTITLE10=Do What I Say
TTITLE11=White Lightning
TTITLE12=Big River
TTITLE13=The Death of Country Music
EXTD=\nURL: http://www.narl.com/bloodshot/ "Bloodshot Home Page"
EXTT0=
EXTT1=
EXTT2=
EXTT3=
EXTT4=
EXTT5=
EXTT6=
EXTT7=
EXTT8=
EXTT9=
EXTT10=
EXTT11=
EXTT12=
EXTT13=
PLAYORDER=
